<svg width="24" height="24" viewBox="0 0 24 24" fill="none" xmlns="http://www.w3.org/2000/svg">
<path d="M11 20.8026C11.0438 21.1345 11.2009 21.4386 11.4421 21.6587C11.6834 21.8788 11.9925 22 12.3125 22C12.6325 22 12.9416 21.8788 13.1829 21.6587C13.4241 21.4386 13.5812 21.1345 13.625 20.8026H11Z" fill="#D128A1"/>
<path d="M20 18.1358L19.8174 17.9635C19.2996 17.47 18.8463 16.904 18.4698 16.2808C18.0586 15.4208 17.8122 14.4817 17.745 13.5184V10.6813C17.7485 9.1684 17.2354 7.70614 16.3021 6.5693C15.3688 5.43246 14.0795 4.69929 12.6765 4.50755V3.7667C12.6765 3.56336 12.601 3.36834 12.4666 3.22456C12.3321 3.08078 12.1498 3 11.9597 3C11.7696 3 11.5873 3.08078 11.4529 3.22456C11.3185 3.36834 11.243 3.56336 11.243 3.7667V4.51904C9.85249 4.7246 8.57878 5.4622 7.65773 6.59522C6.73669 7.72824 6.23073 9.1799 6.23356 10.6813V13.5184C6.16631 14.4817 5.91988 15.4208 5.50872 16.2808C5.13873 16.9024 4.69272 17.4683 4.18255 17.9635L4 18.1358V19.7554H20V18.1358Z" fill="#D128A1"/>
</svg>
