<svg width="24" height="24" viewBox="0 0 24 24" fill="none" xmlns="http://www.w3.org/2000/svg">
<path d="M21.7299 17.5621C22.2589 16.4869 22.5225 15.3006 22.4987 14.1025C22.4749 12.9045 22.1644 11.7296 21.5932 10.6762C21.022 9.62286 20.2067 8.72169 19.2156 8.04819C18.2245 7.37469 17.0865 6.94846 15.8968 6.80521C15.5023 5.88545 14.9276 5.05396 14.2067 4.35973C13.4859 3.6655 12.6333 3.12257 11.6994 2.76293C10.7654 2.40329 9.76889 2.23422 8.76857 2.26567C7.76825 2.29712 6.78434 2.52845 5.87482 2.94605C4.96529 3.36365 4.14854 3.95906 3.47269 4.6972C2.79683 5.43534 2.27555 6.30128 1.93955 7.24401C1.60355 8.18674 1.45963 9.18717 1.51626 10.1864C1.5729 11.1856 1.82895 12.1634 2.26932 13.0621L1.5512 15.5765C1.48712 15.8014 1.48431 16.0394 1.54307 16.2658C1.60182 16.4922 1.72001 16.6987 1.8854 16.8641C2.05079 17.0295 2.25736 17.1477 2.48376 17.2065C2.71015 17.2652 2.94813 17.2624 3.17307 17.1983L5.68745 16.4802C6.44618 16.8527 7.26232 17.0946 8.10151 17.1955C8.50154 18.1327 9.08836 18.9786 9.82615 19.6815C10.5639 20.3844 11.4372 20.9296 12.3927 21.2837C13.3482 21.6379 14.3658 21.7936 15.3835 21.7415C16.4012 21.6893 17.3976 21.4303 18.3118 20.9802L20.8262 21.6983C21.0511 21.7624 21.2891 21.7652 21.5155 21.7065C21.7419 21.6477 21.9485 21.5295 22.1139 21.3641C22.2793 21.1987 22.3974 20.9922 22.4562 20.7658C22.515 20.5394 22.5122 20.3014 22.4481 20.0765L21.7299 17.5621ZM20.2056 17.6877L20.9134 20.1636L18.4374 19.4558C18.2488 19.4028 18.0469 19.4257 17.8749 19.5196C16.4924 20.2717 14.8699 20.4511 13.3564 20.0191C11.843 19.5871 10.5596 18.5782 9.78245 17.2096C10.8094 17.1026 11.8032 16.7846 12.7015 16.2754C13.5998 15.7662 14.3831 15.0769 15.0024 14.2507C15.6216 13.4245 16.0635 12.4792 16.3002 11.4741C16.5368 10.4691 16.5633 9.42595 16.3778 8.41021C17.2765 8.62201 18.1142 9.03836 18.8256 9.62686C19.5371 10.2154 20.1032 10.9601 20.4798 11.8032C20.8563 12.6462 21.0332 13.5648 20.9967 14.4874C20.9603 15.41 20.7113 16.3117 20.2693 17.1224C20.1747 17.2952 20.1518 17.4982 20.2056 17.6877Z" fill="#D128A1"/>
</svg>
