<svg width="20" height="16" viewBox="0 0 20 16" fill="none" xmlns="http://www.w3.org/2000/svg">
<path fill-rule="evenodd" clip-rule="evenodd" d="M0.25 3.33333C0.25 1.6564 1.56767 0.25 3.25 0.25H16.75C18.4323 0.25 19.75 1.6564 19.75 3.33333V12.6667C19.75 14.3436 18.4323 15.75 16.75 15.75H3.25C1.56767 15.75 0.25 14.3436 0.25 12.6667V3.33333ZM1.99128 2.47064C1.83949 2.71601 1.75 3.01071 1.75 3.33333V12.6667C1.75 13.5671 2.44705 14.25 3.25 14.25H16.75C17.553 14.25 18.25 13.5671 18.25 12.6667V3.33333C18.25 3.01071 18.1605 2.71601 18.0087 2.47064C18.1346 2.78369 18.0362 3.15367 17.7499 3.35924L11.0778 8.1495C10.4311 8.61376 9.56889 8.61376 8.92223 8.1495L2.25009 3.35924C1.96376 3.15367 1.86538 2.78369 1.99128 2.47064ZM2.30407 2.1052C2.55254 1.95762 2.87513 1.96143 3.12491 2.14076L9.79704 6.93101C9.92089 7.01992 10.0791 7.01992 10.203 6.93101L16.8751 2.14076C17.1249 1.96143 17.4475 1.95762 17.6959 2.1052C17.4343 1.88151 17.1024 1.75 16.75 1.75H3.25C2.89764 1.75 2.56568 1.88151 2.30407 2.1052Z" fill="#010B09"/>
</svg>
