<svg width="140" height="40" viewBox="0 0 140 40" fill="none" xmlns="http://www.w3.org/2000/svg">
<g clip-path="url(#clip0_126_458)">
<path fill-rule="evenodd" clip-rule="evenodd" d="M17.1573 39.3779L9.42176 34.9044C9.13617 34.7403 8.97691 34.4367 8.97656 34.1287V24.2043L0.403863 19.2467C0.1181 19.0824 -0.0416878 18.7828 -0.0422134 18.4749V9.4709C-0.0422134 8.77893 0.709072 8.36127 1.29251 8.70014L18.1169 18.4252C18.5432 18.6719 18.5432 18.6674 18.5432 19.2023V38.644C18.5432 39.3765 17.8231 39.7631 17.1573 39.3779Z" fill="#FF6600"/>
<path fill-rule="evenodd" clip-rule="evenodd" d="M21.8256 39.3779L29.5611 34.9044C29.8467 34.7403 30.006 34.4367 30.0063 34.1287V24.2043L38.579 19.2467C38.8648 19.0824 39.0246 18.7828 39.0251 18.4749V9.4709C39.0251 8.77893 38.2738 8.36127 37.6904 8.70014L20.866 18.4252C20.4397 18.6719 20.4397 18.6674 20.4397 19.2023V38.644C20.4397 39.3765 21.1598 39.7631 21.8256 39.3779Z" fill="#D128A1"/>
<path fill-rule="evenodd" clip-rule="evenodd" d="M36.6772 5.08781L28.9632 0.6268C28.6784 0.461136 28.3363 0.474821 28.07 0.628377L19.489 5.59076L10.9284 0.640142C10.6514 0.47711 10.2807 0.482549 10.0142 0.639088L2.317 5.09026C1.68503 5.45581 1.7022 6.37118 2.28704 6.70777L19.0191 16.3837C19.3047 16.5488 19.6705 16.5504 19.96 16.383L36.6416 6.7362C37.2748 6.36995 37.3081 5.45266 36.6772 5.08781Z" fill="url(#paint0_linear_126_458)"/>
<path fill-rule="evenodd" clip-rule="evenodd" d="M65.0968 8.81461V12.5907H59.9787V28.1629H55.2733V12.5907H50.1552V8.81461H65.0968ZM136.93 10.3644C136.258 10.3644 135.708 10.1601 135.283 9.75156C134.857 9.34302 134.644 8.83812 134.644 8.23689C134.644 7.62021 134.857 7.10743 135.283 6.69906C135.708 6.29034 136.258 6.08606 136.93 6.08606C137.587 6.08606 138.129 6.29034 138.555 6.69906C138.981 7.10743 139.194 7.62021 139.194 8.23689C139.194 8.83812 138.981 9.34302 138.555 9.75156C138.129 10.1601 137.587 10.3644 136.93 10.3644ZM82.2872 20.2253C82.2872 20.6663 82.2597 21.1255 82.2047 21.6032H71.5556C71.629 22.5588 71.9363 23.2892 72.4776 23.7946C73.0186 24.2998 73.6837 24.5524 74.4725 24.5524C75.6465 24.5524 76.4628 24.0563 76.9215 23.064H81.9296C81.6726 24.0747 81.2095 24.9843 80.5399 25.7927C79.8702 26.6011 79.031 27.2351 78.0222 27.6944C77.0131 28.1538 75.885 28.3835 74.6375 28.3835C73.1334 28.3835 71.7941 28.0619 70.6202 27.4189C69.446 26.7757 68.5287 25.857 67.8684 24.6626C67.208 23.4682 66.8778 22.0718 66.8778 20.4732C66.8778 18.8747 67.2033 17.4783 67.8546 16.2839C68.5058 15.0897 69.4184 14.171 70.5925 13.5278C71.7666 12.8846 73.115 12.5631 74.6375 12.5631C76.1234 12.5631 77.4443 12.8755 78.6 13.5002C79.7557 14.125 80.6592 15.0161 81.3104 16.1737C81.9617 17.3312 82.2872 18.6818 82.2872 20.2253ZM77.4718 18.9849C77.4718 18.1766 77.1966 17.5334 76.6463 17.0557C76.0959 16.5778 75.4081 16.339 74.5825 16.339C73.7937 16.339 73.1288 16.5687 72.5876 17.0282C72.0464 17.4874 71.7116 18.1397 71.5831 18.9849H77.4718ZM94.4694 12.6182C96.2672 12.6182 97.7026 13.2016 98.7759 14.3684C99.8491 15.5352 100.386 17.1384 100.386 19.1779V28.1629H95.7077V19.8118C95.7077 18.7829 95.4418 17.9835 94.9096 17.4139C94.3777 16.8444 93.6623 16.5596 92.7635 16.5596C91.8646 16.5596 91.149 16.8444 90.6171 17.4139C90.0852 17.9835 89.819 18.7829 89.819 19.8118V28.1629H85.1138V12.7835H89.819V14.8231C90.2961 14.1432 90.938 13.6057 91.7454 13.2109C92.5524 12.8158 93.4605 12.6182 94.4694 12.6182ZM112.568 24.1666V28.1629H110.174C108.468 28.1629 107.138 27.7449 106.184 26.9089C105.23 26.073 104.753 24.7086 104.753 22.8161V16.6974H102.882V12.7835H104.753V9.03521H109.458V12.7835H112.54V16.6974H109.458V22.8712C109.458 23.3304 109.569 23.6612 109.789 23.8634C110.009 24.0656 110.376 24.1666 110.889 24.1666H112.568ZM114.596 20.4457C114.596 18.8656 114.894 17.4783 115.491 16.2839C116.087 15.0897 116.899 14.171 117.926 13.5278C118.953 12.8846 120.1 12.5631 121.366 12.5631C122.448 12.5631 123.397 12.7835 124.214 13.2245C125.03 13.6656 125.658 14.2443 126.098 14.961V12.7835H130.804V28.1629H126.098V25.9856C125.64 26.7021 125.002 27.2809 124.186 27.7219C123.37 28.1629 122.42 28.3835 121.338 28.3835C120.091 28.3835 118.953 28.0573 117.926 27.405C116.899 26.7529 116.087 25.8249 115.491 24.6212C114.894 23.4178 114.596 22.026 114.596 20.4457ZM126.098 20.4732C126.098 19.2973 125.773 18.3694 125.122 17.6896C124.47 17.0097 123.677 16.6698 122.741 16.6698C121.806 16.6698 121.012 17.005 120.361 17.6759C119.71 18.3464 119.384 19.2699 119.384 20.4457C119.384 21.6217 119.71 22.5542 120.361 23.2432C121.012 23.9324 121.806 24.2768 122.741 24.2768C123.677 24.2768 124.47 23.9369 125.122 23.2571C125.773 22.5772 126.098 21.6492 126.098 20.4732ZM139.271 12.7835V28.1629H134.566V12.7835H139.271Z" fill="#D128A1"/>
<path d="M68.0522 34.0072L66.6476 38.3078H65.5804L64.6357 35.3957L63.6605 38.3078H62.5992L61.1885 34.0072H62.219L63.1881 37.0299L64.2003 34.0072H65.1203L66.1016 37.0545L67.1015 34.0072H68.0522ZM70.209 38.357C69.8614 38.357 69.5495 38.2843 69.2736 38.1388C68.9976 37.9935 68.7819 37.7917 68.6265 37.5337C68.4711 37.2756 68.3933 36.9829 68.3933 36.6552C68.3933 36.3274 68.4711 36.0347 68.6265 35.7765C68.7819 35.5185 68.9976 35.3167 69.2736 35.1714C69.5495 35.0259 69.8614 34.9533 70.209 34.9533C70.5566 34.9533 70.8674 35.0259 71.1413 35.1714C71.4153 35.3167 71.6299 35.5185 71.7853 35.7765C71.9407 36.0347 72.0185 36.3274 72.0185 36.6552C72.0185 36.9829 71.9407 37.2756 71.7853 37.5337C71.6299 37.7917 71.4153 37.9935 71.1413 38.1388C70.8674 38.2843 70.5566 38.357 70.209 38.357ZM70.209 37.5706C70.4543 37.5706 70.6558 37.4876 70.8131 37.3217C70.9706 37.1559 71.0493 36.9337 71.0493 36.6552C71.0493 36.3767 70.9706 36.1544 70.8131 35.9885C70.6558 35.8227 70.4543 35.7397 70.209 35.7397C69.9637 35.7397 69.7612 35.8227 69.6017 35.9885C69.4423 36.1544 69.3626 36.3767 69.3626 36.6552C69.3626 36.9337 69.4423 37.1559 69.6017 37.3217C69.7612 37.4876 69.9637 37.5706 70.209 37.5706ZM73.9176 35.4387C74.032 35.279 74.1865 35.1581 74.3807 35.0761C74.575 34.9942 74.7989 34.9533 75.0524 34.9533V35.8379C74.9461 35.8299 74.8744 35.8257 74.8376 35.8257C74.5638 35.8257 74.349 35.9025 74.1936 36.0561C74.0381 36.2096 73.9605 36.4401 73.9605 36.7473V38.3078H73.0037V35.0024H73.9176V35.4387ZM75.9702 33.7491H76.927V38.3078H75.9702V33.7491ZM81.5251 33.7491V38.3078H80.611V37.9268C80.374 38.2136 80.0304 38.357 79.5806 38.357C79.2698 38.357 78.9886 38.2873 78.7372 38.1481C78.4858 38.0088 78.2883 37.8101 78.1453 37.5521C78.0022 37.2942 77.9305 36.9951 77.9305 36.6552C77.9305 36.3151 78.0022 36.0162 78.1453 35.7581C78.2883 35.5001 78.4858 35.3015 78.7372 35.1621C78.9886 35.023 79.2698 34.9533 79.5806 34.9533C80.0018 34.9533 80.3309 35.0865 80.5681 35.3527V33.7491H81.5251ZM79.7462 37.5706C79.9875 37.5706 80.1879 37.4876 80.3473 37.3217C80.5068 37.1559 80.5865 36.9337 80.5865 36.6552C80.5865 36.3767 80.5068 36.1544 80.3473 35.9885C80.1879 35.8227 79.9875 35.7397 79.7462 35.7397C79.5009 35.7397 79.2984 35.8227 79.1389 35.9885C78.9795 36.1544 78.8998 36.3767 78.8998 36.6552C78.8998 36.9337 78.9795 37.1559 79.1389 37.3217C79.2984 37.4876 79.5009 37.5706 79.7462 37.5706ZM87.4504 38.357C87.1028 38.357 86.7909 38.2843 86.515 38.1388C86.239 37.9935 86.0233 37.7917 85.8679 37.5337C85.7125 37.2756 85.6347 36.9829 85.6347 36.6552C85.6347 36.3274 85.7125 36.0347 85.8679 35.7765C86.0233 35.5185 86.239 35.3167 86.515 35.1714C86.7909 35.0259 87.1028 34.9533 87.4504 34.9533C87.798 34.9533 88.1088 35.0259 88.3827 35.1714C88.6567 35.3167 88.8713 35.5185 89.0267 35.7765C89.1822 36.0347 89.2599 36.3274 89.2599 36.6552C89.2599 36.9829 89.1822 37.2756 89.0267 37.5337C88.8713 37.7917 88.6567 37.9935 88.3827 38.1388C88.1088 38.2843 87.798 38.357 87.4504 38.357ZM87.4504 37.5706C87.6957 37.5706 87.8972 37.4876 88.0545 37.3217C88.212 37.1559 88.2907 36.9337 88.2907 36.6552C88.2907 36.3767 88.212 36.1544 88.0545 35.9885C87.8972 35.8227 87.6957 35.7397 87.4504 35.7397C87.2051 35.7397 87.0026 35.8227 86.8431 35.9885C86.6837 36.1544 86.604 36.3767 86.604 36.6552C86.604 36.9337 86.6837 37.1559 86.8431 37.3217C87.0026 37.4876 87.2051 37.5706 87.4504 37.5706ZM91.2939 35.0761H92.1403V35.8134H91.3184V38.3078H90.3617V35.8134H89.8525V35.0761H90.3617V34.9287C90.3617 34.5519 90.4731 34.2529 90.6959 34.0318C90.9188 33.8105 91.2326 33.6999 91.6375 33.6999C91.7806 33.6999 91.9166 33.7154 92.0454 33.7461C92.1742 33.7768 92.2816 33.8208 92.3674 33.8782L92.1158 34.5725C92.0054 34.4945 91.8767 34.4556 91.7295 34.4556C91.4392 34.4556 91.2939 34.6155 91.2939 34.9349V35.0761ZM101.701 34.9533C102.11 34.9533 102.44 35.0761 102.691 35.322C102.943 35.5677 103.069 35.9322 103.069 36.4155V38.3078H102.112V36.5629C102.112 36.3009 102.054 36.1052 101.94 35.9762C101.825 35.8472 101.66 35.7827 101.443 35.7827C101.202 35.7827 101.01 35.8574 100.867 36.0069C100.723 36.1565 100.652 36.3786 100.652 36.6736V38.3078H99.6951V33.7491H100.652V35.3466C100.779 35.2195 100.932 35.1223 101.112 35.0547C101.292 34.9872 101.488 34.9533 101.701 34.9533ZM105.888 38.357C105.54 38.357 105.228 38.2843 104.952 38.1388C104.676 37.9935 104.461 37.7917 104.305 37.5337C104.15 37.2756 104.072 36.9829 104.072 36.6552C104.072 36.3274 104.15 36.0347 104.305 35.7765C104.461 35.5185 104.676 35.3167 104.952 35.1714C105.228 35.0259 105.54 34.9533 105.888 34.9533C106.235 34.9533 106.546 35.0259 106.82 35.1714C107.094 35.3167 107.309 35.5185 107.464 35.7765C107.62 36.0347 107.697 36.3274 107.697 36.6552C107.697 36.9829 107.62 37.2756 107.464 37.5337C107.309 37.7917 107.094 37.9935 106.82 38.1388C106.546 38.2843 106.235 38.357 105.888 38.357ZM105.888 37.5706C106.133 37.5706 106.335 37.4876 106.492 37.3217C106.649 37.1559 106.728 36.9337 106.728 36.6552C106.728 36.3767 106.649 36.1544 106.492 35.9885C106.335 35.8227 106.133 35.7397 105.888 35.7397C105.642 35.7397 105.44 35.8227 105.281 35.9885C105.121 36.1544 105.041 36.3767 105.041 36.6552C105.041 36.9337 105.121 37.1559 105.281 37.3217C105.44 37.4876 105.642 37.5706 105.888 37.5706ZM110.633 34.9533C110.94 34.9533 111.219 35.024 111.47 35.1653C111.722 35.3065 111.919 35.5052 112.062 35.7612C112.205 36.0171 112.277 36.3151 112.277 36.6552C112.277 36.9951 112.205 37.2931 112.062 37.549C111.919 37.805 111.722 38.0037 111.47 38.145C111.219 38.2862 110.94 38.357 110.633 38.357C110.212 38.357 109.881 38.2239 109.639 37.9575V39.4998H108.683V35.0024H109.596V35.3834C109.834 35.0967 110.179 34.9533 110.633 34.9533ZM110.467 37.5706C110.713 37.5706 110.914 37.4876 111.072 37.3217C111.229 37.1559 111.308 36.9337 111.308 36.6552C111.308 36.3767 111.229 36.1544 111.072 35.9885C110.914 35.8227 110.713 35.7397 110.467 35.7397C110.222 35.7397 110.021 35.8227 109.863 35.9885C109.706 36.1544 109.627 36.3767 109.627 36.6552C109.627 36.9337 109.706 37.1559 109.863 37.3217C110.021 37.4876 110.222 37.5706 110.467 37.5706ZM115.213 34.9533C115.519 34.9533 115.798 35.024 116.05 35.1653C116.301 35.3065 116.499 35.5052 116.642 35.7612C116.785 36.0171 116.856 36.3151 116.856 36.6552C116.856 36.9951 116.785 37.2931 116.642 37.549C116.499 37.805 116.301 38.0037 116.05 38.145C115.798 38.2862 115.519 38.357 115.213 38.357C114.791 38.357 114.46 38.2239 114.219 37.9575V39.4998H113.262V35.0024H114.176V35.3834C114.413 35.0967 114.759 34.9533 115.213 34.9533ZM115.047 37.5706C115.292 37.5706 115.494 37.4876 115.651 37.3217C115.809 37.1559 115.887 36.9337 115.887 36.6552C115.887 36.3767 115.809 36.1544 115.651 35.9885C115.494 35.8227 115.292 35.7397 115.047 35.7397C114.802 35.7397 114.6 35.8227 114.443 35.9885C114.285 36.1544 114.207 36.3767 114.207 36.6552C114.207 36.9337 114.285 37.1559 114.443 37.3217C114.6 37.4876 114.802 37.5706 115.047 37.5706ZM117.842 35.0024H118.798V38.3078H117.842V35.0024ZM118.32 34.5416C118.144 34.5416 118.001 34.4905 117.891 34.388C117.78 34.2857 117.725 34.1587 117.725 34.0072C117.725 33.8556 117.78 33.7287 117.891 33.6262C118.001 33.5239 118.144 33.4727 118.32 33.4727C118.496 33.4727 118.639 33.5218 118.749 33.6201C118.86 33.7184 118.915 33.8412 118.915 33.9888C118.915 34.1485 118.86 34.2806 118.749 34.385C118.639 34.4895 118.496 34.5416 118.32 34.5416ZM122.041 34.9533C122.45 34.9533 122.78 35.0761 123.032 35.322C123.283 35.5677 123.409 35.9322 123.409 36.4155V38.3078H122.452V36.5629C122.452 36.3009 122.395 36.1052 122.28 35.9762C122.166 35.8472 122 35.7827 121.783 35.7827C121.542 35.7827 121.35 35.8574 121.207 36.0069C121.063 36.1565 120.992 36.3786 120.992 36.6736V38.3078H120.035V35.0024H120.949V35.3896C121.076 35.2502 121.233 35.1428 121.421 35.067C121.609 34.9912 121.816 34.9533 122.041 34.9533ZM128.062 35.0024V37.7548C128.062 38.361 127.904 38.8117 127.59 39.1065C127.275 39.4015 126.815 39.5489 126.209 39.5489C125.89 39.5489 125.588 39.5099 125.302 39.4322C125.015 39.3543 124.778 39.2416 124.59 39.0942L124.97 38.4061C125.11 38.5209 125.285 38.6119 125.498 38.6795C125.711 38.7471 125.923 38.7809 126.136 38.7809C126.467 38.7809 126.711 38.7062 126.869 38.5567C127.026 38.4071 127.105 38.1807 127.105 37.8777V37.7364C126.856 38.0109 126.508 38.1481 126.062 38.1481C125.76 38.1481 125.483 38.0816 125.231 37.9484C124.98 37.8152 124.78 37.6279 124.633 37.3863C124.486 37.1446 124.412 36.8662 124.412 36.5506C124.412 36.2353 124.486 35.9567 124.633 35.7151C124.78 35.4734 124.98 35.286 125.231 35.153C125.483 35.0198 125.76 34.9533 126.062 34.9533C126.541 34.9533 126.905 35.111 127.154 35.4264V35.0024H128.062ZM126.252 37.3617C126.506 37.3617 126.713 37.287 126.875 37.1375C127.036 36.9879 127.117 36.7923 127.117 36.5506C127.117 36.309 127.036 36.1135 126.875 35.9639C126.713 35.8144 126.506 35.7397 126.252 35.7397C125.999 35.7397 125.79 35.8144 125.627 35.9639C125.463 36.1135 125.381 36.309 125.381 36.5506C125.381 36.7923 125.463 36.9879 125.627 37.1375C125.79 37.287 125.999 37.3617 126.252 37.3617ZM97.2008 38.357C96.927 38.357 96.6591 38.3233 96.3973 38.2555C96.1356 38.1879 95.9271 38.103 95.7717 38.0007L96.0907 37.3126C96.2379 37.4067 96.4157 37.4835 96.6242 37.5429C96.8329 37.6023 97.0374 37.632 97.2376 37.632C97.6425 37.632 97.8449 37.5316 97.8449 37.331C97.8449 37.2368 97.7897 37.1692 97.6793 37.1281C97.5689 37.0873 97.3992 37.0524 97.1702 37.0237C96.9004 36.9829 96.6775 36.9356 96.5016 36.8825C96.3259 36.8293 96.1734 36.7351 96.0447 36.5998C95.9159 36.4646 95.8514 36.2721 95.8514 36.0224C95.8514 35.8134 95.9118 35.6281 96.0324 35.4663C96.1531 35.3045 96.3288 35.1786 96.5599 35.0884C96.791 34.9984 97.0638 34.9533 97.3789 34.9533C97.6119 34.9533 97.8438 34.9789 98.0749 35.0301C98.306 35.0812 98.4972 35.1519 98.6484 35.2421L98.3295 35.9241C98.0392 35.7602 97.7223 35.6782 97.3789 35.6782C97.1744 35.6782 97.0209 35.707 96.9188 35.7642C96.8164 35.8216 96.7655 35.8953 96.7655 35.9855C96.7655 36.0878 96.8206 36.1596 96.931 36.2005C97.0414 36.2414 97.2173 36.2803 97.4586 36.3172C97.7284 36.3623 97.9491 36.4104 98.121 36.4616C98.2927 36.5129 98.442 36.6061 98.5687 36.7412C98.6955 36.8763 98.759 37.0648 98.759 37.3065C98.759 37.5111 98.6975 37.6934 98.5748 37.8531C98.4522 38.013 98.2733 38.1369 98.0382 38.2248C97.803 38.3129 97.5239 38.357 97.2008 38.357Z" fill="#FF6600"/>
</g>
<defs>
<linearGradient id="paint0_linear_126_458" x1="13.3556" y1="-1.40715" x2="25.6506" y2="13.1995" gradientUnits="userSpaceOnUse">
<stop stop-color="#FF6600"/>
<stop offset="1" stop-color="#D128A1"/>
</linearGradient>
<clipPath id="clip0_126_458">
<rect width="140" height="40" fill="white"/>
</clipPath>
</defs>
</svg>
