<svg width="13" height="18" viewBox="0 0 13 18" fill="none" xmlns="http://www.w3.org/2000/svg">
<path d="M12.1675 8.17432L3.25563 16.1123C3.22493 16.1391 3.18579 16.1608 3.14117 16.1756C3.09655 16.1904 3.04763 16.198 2.99812 16.1978C2.94586 16.1987 2.89418 16.1902 2.84817 16.1731C2.78026 16.149 2.72675 16.1092 2.69697 16.0607C2.66718 16.0122 2.66301 15.958 2.68519 15.9076L5.08755 10.4266H0.321941C0.261746 10.4264 0.202777 10.4148 0.15157 10.393C0.100364 10.3711 0.0589196 10.3399 0.0318319 10.3028C0.00708194 10.2671 -0.00354098 10.2274 0.00103822 10.1879C0.00561742 10.1484 0.0252362 10.1104 0.0579091 10.0778L8.70251 1.89007C8.74524 1.84926 8.80656 1.81953 8.87666 1.80563C8.94677 1.79172 9.0216 1.79445 9.0892 1.81337C9.15679 1.83229 9.21323 1.86632 9.2495 1.91C9.28577 1.95368 9.29977 2.0045 9.28925 2.05432L8.14511 7.81207H11.91C11.9711 7.81198 12.031 7.82375 12.0829 7.84603C12.1347 7.86831 12.1765 7.9002 12.2034 7.93807C12.2299 7.97584 12.2406 8.01798 12.2343 8.05973C12.228 8.10148 12.2048 8.14117 12.1675 8.17432Z" fill="#FF6600"/>
</svg>
